<?xml version="1.0" encoding="UTF-8" standalone="no"?>
<svg
   width="187.60999"
   height="188.13998"
   fill="none"
   viewBox="0 0 187.60999 188.13998"
   version="1.1"
   id="svg153"
   xmlns="http://www.w3.org/2000/svg"
   xmlns:svg="http://www.w3.org/2000/svg">
  <!-- SVG created with Arrow, by QuiverAI (https://quiver.ai) -->
  <g
     id="g153"
     transform="translate(-25.79,-7.2600004)">
    <path
       d="m 131.2,7.26 c -25.26,0 -40.08,12.8 -45.76,27.91 l -5.03,-8.78 c 1.36,-4.27 -1.57,-9.93 -7.67,-9.93 -6.1,0 -8.3,5.3 -7.9,8.45 0.55,4.31 3.24,6.55 8.15,6.79 l 6.25,15.28 c -3.47,4.03 -5.4,8.28 -4.92,15.76 0.69,11.08 7.72,18.22 14.43,19.51 2.37,3.87 5.39,6.86 8.99,9.49 -14.73,3.54 -27.54,16.04 -33.1,22.34 -6.6,7.61 -6.69,14.84 2.81,15.08 8.66,0.24 17.39,-2.18 24.03,-8.1 -1.36,6.09 -0.56,11.1 1.73,14.85 -4.34,5.01 -9.96,13.67 -12.05,20.05 -3.51,11.16 3.6,15.51 8.84,14.75 8.26,-1.25 15.09,-9.79 21.15,-17.9 l 4.06,0.4 c -1.81,7.71 -0.04,16.98 8.3,17.5 9.7,0 18.59,-13.75 22.34,-26.37 4.71,0 9.3,-0.56 12.32,-2.77 4.95,2.29 11.28,0.84 14.79,-2.77 5.19,3.93 11.48,6.02 15.03,6.02 14.95,0 25.41,-13.91 25.41,-26.75 0,-14.39 -12.19,-26.73 -25.61,-26.73 -9.88,0 -18.62,6.54 -23.13,14.49 -4.22,-1.08 -6.37,-3.03 -9.51,-8.51 12.85,-4.7 26.67,-14.59 26.67,-36.19 0,-25 -13.82,-53.87 -50.62,-53.87 z"
       fill="#0b2044"
       id="path2" />
    <path
       d="m 187.6,94.13 c -13.34,0 -24.15,12.84 -24.15,24.58 0,12.36 10.53,22.41 23.87,22.41 12.11,0 22.64,-12 22.64,-23.89 0,-12.4 -10.41,-23.1 -22.36,-23.1 z"
       fill="url(#paint0_radial_1204_2525)"
       id="path3"
       style="fill:url(#paint0_radial_1204_2525)" />
    <path
       d="m 186.9,101.3 c -8.21,0 -12.51,5.85 -12.51,11.48 0,6.39 5.4,11.09 12.83,12.26 2.49,0.4 3.89,0 3.89,-1.57 0,-1.28 -1.16,-2.08 -4.05,-2.88 -4.95,-1.42 -7.27,-3.75 -7.27,-7.37 0,-4.18 3.92,-7.13 8.67,-7.13 2.13,0 4.26,0.6 6.34,1.39 3.12,1.16 5.33,-3.34 4.09,-4.22 -2.73,-1.64 -6.73,-1.96 -11.99,-1.96 z"
       fill="#fefffe"
       opacity="0.8"
       id="path4" />
    <path
       d="m 187.7,104.8 c -4.91,0 -8.91,2.99 -8.91,7.61 0,4.18 3.2,6.89 9.03,8.37 2.73,0.72 4.14,1.28 4.14,3.12 0,1.49 -1.37,2.46 -3.5,2.46 -2.2,0 -4.47,-0.77 -6.47,-1.81 -2.8,-1.41 -5.75,3.29 -4.27,4.34 2.87,1.95 6.07,3.19 10.14,3.19 7.1,0 12.09,-4.8 12.09,-10.38 0,-5.55 -4.91,-8.41 -10.12,-9.61 -2.53,-0.65 -3.81,-1.29 -3.81,-2.7 0,-1.16 1.12,-1.88 2.77,-1.88 1.4,0 3.25,0.44 4.77,1 3.6,1.32 5.53,-3.71 4.24,-4.26 -2.44,-1 -5.68,0.55 -10.1,0.55 z"
       fill="#fefffe"
       id="path5" />
    <path
       d="m 122.9,186 c -26.13,0 -46.66,2.25 -46.66,4.3 0,2.81 16.68,5.1 46.86,5.1 26.13,0 48.34,-2.29 47.5,-5.1 -0.56,-2.05 -20.29,-4.3 -47.7,-4.3 z"
       fill="#5d6575"
       opacity="0.25"
       id="path6" />
    <path
       d="m 100.7,95.73 c -13.05,1.4 -25.72,12.45 -33.51,21.54 -5.04,5.78 -5,8.67 0.83,8.67 10.57,0 23.08,-5.75 26.62,-14.63 2.04,-5.2 3.41,-9.39 6.06,-15.58 z"
       fill="url(#paint9_linear_1204_2525)"
       stroke="#0b2044"
       stroke-miterlimit="10"
       stroke-width="2.101"
       id="path15"
       style="fill:url(#paint9_linear_1204_2525)" />
    <path
       d="m 153.1,97.61 c 3.01,5.31 5.02,6.83 9.81,8.5 l -3.95,9.13 -5.86,3.59 z"
       fill="url(#paint10_linear_1204_2525)"
       stroke="#0b2044"
       stroke-miterlimit="10"
       stroke-width="2.101"
       id="path16"
       style="fill:url(#paint10_linear_1204_2525)" />
    <path
       d="m 105.1,95.33 c -8.89,8.23 -16,27.52 -11.09,37.42 l 2.24,2.72 15.8,-0.28 0.56,12.04 4.55,1.68 17.67,-1.68 8.43,-4.86 6.51,-4.21 2.28,-21.05 c 1,-8.05 0.32,-14.83 -2.4,-20.98 z"
       fill="url(#paint11_linear_1204_2525)"
       stroke="#0b2044"
       stroke-miterlimit="10"
       stroke-width="2.101"
       id="path17"
       style="fill:url(#paint11_linear_1204_2525)" />
    <path
       d="m 124.8,100.2 2.33,7.77 21.83,-0.8 1.08,-9.21 z"
       fill="url(#paint12_linear_1204_2525)"
       stroke="#0b2044"
       stroke-miterlimit="10"
       stroke-width="2.101"
       id="path18"
       style="fill:url(#paint12_linear_1204_2525)" />
    <path
       d="m 131.1,108.7 6.29,8.77 10.06,-0.4 0.6,-8.37 z"
       fill="url(#paint13_linear_1204_2525)"
       stroke="#009ba4"
       stroke-miterlimit="10"
       stroke-width="2.101"
       id="path19"
       style="fill:url(#paint13_linear_1204_2525)" />
    <path
       d="m 107.4,96.13 c -7.29,5.35 -15.32,24.68 -11.48,36.58 l 1.48,-0.52 4.68,-1.08 6.52,2 3.52,4.85 0.6,7.66 3.19,1.49 c 7.2,0.88 16.7,-1.33 22.1,-6.34 l -4.11,-2.81 -11.75,-8.24 -10.63,-10.09 -6.29,-6.87 -0.4,-7.67 z"
       fill="url(#paint14_linear_1204_2525)"
       id="path20"
       style="fill:url(#paint14_linear_1204_2525)" />
    <path
       d="m 113.3,100 c -6.91,0 -9.68,7.1 -9.68,10.17 0,5.96 4.72,10.29 9.44,12.43 l 9.67,9.5 5.54,2.68 0.4,-12.78 -6.54,-10.9 0.4,-3.17 C 122.09,104.07 118.42,100 113.3,100 Z"
       fill="url(#paint15_linear_1204_2525)"
       stroke="#0b2044"
       stroke-miterlimit="10"
       stroke-width="2.101"
       id="path21"
       style="fill:url(#paint15_linear_1204_2525)" />
    <path
       d="m 120.8,111.1 c -5.37,0 -8.08,4.67 -8.08,9 3.31,5.15 10.19,10.6 14.53,12.6 l 3.11,-10.5 -0.4,-4.1 c -2.79,-2.99 -4.8,-7 -9.16,-7 z"
       fill="url(#paint16_linear_1204_2525)"
       stroke="#0b2044"
       stroke-miterlimit="10"
       stroke-width="3.152"
       id="path22"
       style="fill:url(#paint16_linear_1204_2525)" />
    <path
       d="m 140.8,120.1 c -7.64,0 -13.72,3.7 -13.72,10.17 0,8.28 9.17,10.88 22.03,10.88 6.48,0 9.81,-1.84 9.81,-8.01 0,-9.58 -3.53,-13.04 -18.12,-13.04 z"
       fill="url(#paint17_linear_1204_2525)"
       stroke="#0b2044"
       stroke-miterlimit="10"
       stroke-width="3.152"
       id="path23"
       style="fill:url(#paint17_linear_1204_2525)" />
    <path
       d="m 163.1,124.9 c -4.35,0 -5.19,1.77 -5.19,5.3 v 7.32 c 1.84,1.64 4.19,1.6 5.79,1.6 5.33,0 8.85,-3.53 8.85,-8.33 0,-3.28 -3.16,-5.89 -9.45,-5.89 z"
       fill="url(#paint18_linear_1204_2525)"
       stroke="#0b2044"
       stroke-miterlimit="10"
       stroke-width="3.152"
       id="path24"
       style="fill:url(#paint18_linear_1204_2525)" />
    <path
       d="m 157.4,122 5.83,-4.9 -1.88,-0.81 c -2.39,0 -5.2,2.13 -5.52,4.51 z"
       fill="url(#paint19_linear_1204_2525)"
       stroke="#0b2044"
       stroke-miterlimit="10"
       stroke-width="2.101"
       id="path25"
       style="fill:url(#paint19_linear_1204_2525)" />
    <path
       d="m 118.2,152.4 c -0.81,4.33 -0.25,14.22 5.59,14.22 7.33,0 15.42,-12.14 17.46,-21.45 -6.51,6.75 -13.8,11.04 -23.05,7.23 z"
       fill="url(#paint20_linear_1204_2525)"
       stroke="#0b2044"
       stroke-miterlimit="10"
       stroke-width="3.152"
       id="path26"
       style="fill:url(#paint20_linear_1204_2525)" />
    <path
       d="m 87.52,149.1 c -3.47,5.18 -6.15,17.6 1.36,19 7.91,1.52 16.38,-10.65 20.73,-18.05 l -2.87,-17.35 -10.53,0.4 z"
       fill="url(#paint21_linear_1204_2525)"
       stroke="#0b2044"
       stroke-miterlimit="10"
       stroke-width="3.152"
       id="path27"
       style="fill:url(#paint21_linear_1204_2525)" />
    <path
       d="m 88.12,150.7 c -1.84,4.43 -2.79,13.02 3.29,13.42 5.4,0.4 9.52,-6.5 11.08,-8.99 l -3.45,2.49 -7.63,-2.49 z"
       fill="url(#paint22_linear_1204_2525)"
       id="path28"
       style="fill:url(#paint22_linear_1204_2525)" />
    <path
       d="m 101.9,133.9 c -6.2,0 -11.12,8.86 -12.04,13.2 -0.93,4.86 3,10.31 7.92,10.31 4.52,0 10.28,-9.63 10.28,-15.05 0,-4.93 -2.43,-8.46 -6.16,-8.46 z"
       fill="url(#paint23_linear_1204_2525)"
       id="path29"
       style="fill:url(#paint23_linear_1204_2525)" />
    <path
       d="m 152.8,124.5 c 3.32,0 4.04,3.73 4.04,7.45 0,3.32 -0.4,6.61 -2.44,6.61 -1.48,0 -2.12,-0.84 -2.12,-2.04 v -11.14 c 0,-0.56 0.08,-0.88 0.52,-0.88 z"
       fill="url(#paint24_linear_1204_2525)"
       id="path30"
       style="fill:url(#paint24_linear_1204_2525)" />
    <path
       d="m 131.3,9.86 c -29.08,0 -46.2,17.62 -46.68,32.81 L 77.59,26.31 75.75,28.6 81.9,46.98 c -3.51,3.35 -5.15,8 -5.15,13.95 0,9.35 5.59,18.08 13.11,18.88 6.12,9.02 16.17,15.92 37.97,15.92 26.15,0 51.43,-11.77 51.43,-35.56 0,-23.8 -12.86,-50.31 -47.96,-50.31 z"
       fill="url(#paint25_linear_1204_2525)"
       stroke="#0b2044"
       stroke-miterlimit="10"
       stroke-width="2.101"
       id="path31"
       style="fill:url(#paint25_linear_1204_2525)" />
    <path
       d="m 131.2,12.02 c -17.76,0 -30.24,6.2 -38.36,17.26 -3.33,4.61 -5.09,9.49 -5.09,13.43 8.49,0 12.81,9.18 12.81,19.26 0,12.65 6.61,30.29 30.64,30.29 22.6,0 41.52,-10.49 44.65,-26.85 0.92,-4.8 0.84,-12.07 -1.6,-22.34 -4.6,-16.03 -16.44,-31.05 -43.05,-31.05 z"
       fill="url(#paint26_linear_1204_2525)"
       id="path32"
       style="fill:url(#paint26_linear_1204_2525)" />
    <path
       d="m 106,17.18 c 9.3,-0.8 17.02,5.54 20.16,13.22 l -1.57,0.8 C 121.07,24.31 114.9,18.82 106,18.78 Z"
       fill="#0b2044"
       id="path33" />
    <path
       d="m 152,14.41 c 4,3.53 5.73,9.5 6.13,14.19 l -2.53,-0.4 c -0.4,-4.33 -2.32,-9.42 -5.6,-14.59 z"
       fill="#0b2044"
       id="path34" />
    <path
       d="m 138.4,14.53 c -4.51,0 -5.2,3.45 -1.71,5.09 2.73,1.2 6.71,1.2 9.03,0.4 2.79,-1 1.24,-5.49 -7.32,-5.49 z"
       fill="#feffff"
       id="path35" />
    <path
       d="m 103.6,26.8 c -2.04,0 -2.68,1.32 -2.68,2.4 0,1.48 0.88,2.24 2.13,2.24 1.72,0 2.56,-1.16 2.56,-2.4 0,-1.16 -0.84,-2.24 -2.01,-2.24 z"
       fill="#feffff"
       id="path36" />
    <path
       d="m 144.4,28.88 c -20.13,0 -37.64,8.05 -37.64,26.86 0,14.82 2.43,31.97 27.21,31.97 22.22,0 42.95,-7.3 42.95,-27.1 0,-17.14 -9.11,-31.73 -32.52,-31.73 z"
       fill="url(#paint27_radial_1204_2525)"
       id="path37"
       style="fill:url(#paint27_radial_1204_2525)" />
    <path
       d="m 129.1,48.94 c -5.14,0 -7.9,5.2 -7.9,9.87 0,5.32 3.45,8.84 7.58,8.84 4.4,0 6.17,-4.88 6.17,-9.24 0,-4.35 -2.05,-9.47 -5.85,-9.47 z"
       fill="url(#paint28_linear_1204_2525)"
       id="path38"
       style="fill:url(#paint28_linear_1204_2525)" />
    <path
       d="m 163.1,46.7 c -4.35,0 -5.59,4.51 -5.59,8.44 0,4.87 2.44,8.39 5.79,8.39 4.34,0 5.18,-4.88 5.18,-7.95 0,-3.97 -1.64,-8.88 -5.38,-8.88 z"
       fill="url(#paint29_linear_1204_2525)"
       id="path39"
       style="fill:url(#paint29_linear_1204_2525)" />
    <path
       d="m 160,37.93 c -1.76,-0.72 -2.6,1.08 -1.24,2.4 1.48,1.48 2.28,2.28 3.55,2.78 1.88,0.76 2.88,-0.88 1.84,-2.38 -0.8,-1.16 -2.72,-2.28 -4.15,-2.8 z"
       fill="url(#paint30_linear_1204_2525)"
       id="path40"
       style="fill:url(#paint30_linear_1204_2525)" />
    <path
       d="m 167.1,44.23 c -1.14,0 -1.38,1.59 -0.34,1.99 0.94,0.4 1.58,-0.4 1.34,-1.2 -0.2,-0.51 -0.6,-0.79 -1,-0.79 z"
       fill="#feffff"
       id="path41" />
    <path
       d="m 139.9,71.12 c -1.52,-1.52 -0.48,-3.67 1.76,-2.63 2.48,1.15 3.76,1.79 5.72,1.79 2.39,0 3.39,-1.4 4.27,-2.23 1.92,-1.56 3.84,0.4 2.8,2.27 -1.4,2.44 -3.96,4.3 -7.07,4.3 -2.8,0 -5.32,-1.16 -7.48,-3.5 z"
       fill="url(#paint31_linear_1204_2525)"
       id="path42"
       style="fill:url(#paint31_linear_1204_2525)" />
    <path
       d="m 72.71,18.9 c -3.54,0 -5.17,2.96 -5.17,5.09 0,3.13 1.95,5.09 4.74,5.09 3.5,0 5.14,-2.56 5.14,-5.09 0,-2.53 -1.8,-5.09 -4.71,-5.09 z"
       fill="url(#paint32_linear_1204_2525)"
       stroke="#0b2044"
       stroke-miterlimit="10"
       stroke-width="2.101"
       id="path43"
       style="fill:url(#paint32_linear_1204_2525)" />
    <path
       d="m 72.36,21.02 c -2.23,0 -3.15,2.01 -3.15,3.25 0,1.64 1.2,2.61 2.67,2.61 2.09,0 3.13,-1.57 3.13,-3.01 0,-1.45 -1.08,-2.85 -2.65,-2.85 z"
       fill="url(#paint33_linear_1204_2525)"
       id="path44"
       style="fill:url(#paint33_linear_1204_2525)" />
    <path
       d="m 86.17,46.22 2.55,-1.51 c 6.51,0 10.44,8.55 10.44,18.03 0,8.78 -4.55,15.67 -9.59,15.67 -2.43,0 -3.56,-1 -4.92,-2.2 l 1.16,-1.95 3.27,-1.94 1.93,-8.63 -2.33,-11.48 -3.67,-3.55 z"
       fill="url(#paint34_linear_1204_2525)"
       stroke="#0b2044"
       stroke-miterlimit="10"
       stroke-width="2.101"
       id="path45"
       style="fill:url(#paint34_linear_1204_2525)" />
    <path
       d="m 84.13,49.9 c -4.52,0 -6.55,5.68 -6.55,11.63 0,7.31 3.55,13.81 7.67,13.81 4.43,0 5.76,-6.3 5.76,-11.73 0,-6.91 -3.13,-13.71 -6.88,-13.71 z"
       fill="url(#paint35_linear_1204_2525)"
       stroke="#0b2044"
       stroke-miterlimit="10"
       stroke-width="2.101"
       id="path46"
       style="fill:url(#paint35_linear_1204_2525)" />
    <path
       d="m 83.73,114.8 c -2.16,-1 -1.4,-3.89 0.76,-4.29 2.35,-0.48 3.19,1.88 2.23,3.33 -0.79,1.24 -1.83,1.44 -2.99,0.96 z"
       fill="#feffff"
       opacity="0.5"
       id="path47" />
    <path
       d="m 206.3,116.7 c -1.16,-0.44 -0.8,-2.26 0.36,-2.5 1.16,-0.32 1.68,1.04 1.08,1.94 -0.44,0.68 -0.96,0.77 -1.44,0.56 z"
       fill="#feffff"
       opacity="0.5"
       id="path48" />
    <path
       d="m 205.2,122.1 c -0.8,-0.32 -0.56,-1.62 0.28,-1.82 0.96,-0.24 1.36,0.86 0.84,1.54 -0.32,0.48 -0.72,0.48 -1.12,0.28 z"
       fill="#feffff"
       opacity="0.5"
       id="path49" />
    <path
       d="m 47.88,121.4 h 4.75 v 5.7 h -5.15 z"
       fill="url(#paint36_linear_1204_2525)"
       id="path50"
       style="fill:url(#paint36_linear_1204_2525)" />
    <path
       d="m 41.27,141.4 h 6.33 c 0.68,0 1.12,0.52 1.12,1.12 v 5.9 c 0,0.68 -0.52,1.12 -1.12,1.12 h -5.89 c -0.68,0 -1.12,-0.52 -1.12,-1.12 v -5.9 c -0.08,-0.6 0.44,-1.12 0.68,-1.12 z"
       fill="url(#paint37_linear_1204_2525)"
       id="path51"
       style="fill:url(#paint37_linear_1204_2525)" />
    <path
       d="m 54.8,138.6 3.91,-3.93 3.07,2.49 -4.31,5.01 -2.67,-2.29 z"
       fill="url(#paint38_linear_1204_2525)"
       id="path52"
       style="fill:url(#paint38_linear_1204_2525)" />
    <path
       d="m 74.97,136.2 3.05,-3.92 h 4.71 l 1.96,3.48 -2.8,4.94 -4.47,0.43 -2.45,-3.68 z"
       fill="url(#paint39_linear_1204_2525)"
       id="path53"
       style="fill:url(#paint39_linear_1204_2525)" />
    <path
       d="m 52.63,156.7 14.55,-14.41 1.55,1.2 -2.39,3.54 2.39,1.6 3.51,-2.41 1.17,1.61 -15.34,15.41 -5.44,-4.94 z"
       fill="url(#paint40_linear_1204_2525)"
       id="path54"
       style="fill:url(#paint40_linear_1204_2525)" />
    <path
       d="m 66.34,164.5 h 5.54 v 5.55 h -5.54 z"
       fill="url(#paint41_linear_1204_2525)"
       id="path55"
       style="fill:url(#paint41_linear_1204_2525)" />
    <path
       d="m 31.92,159.4 2.85,-2.85 2.85,2.85 -2.85,2.85 z"
       fill="url(#paint42_linear_1204_2525)"
       id="path56"
       style="fill:url(#paint42_linear_1204_2525)" />
    <path
       d="m 25.79,182.4 3.32,-3.33 3.33,3.33 -2.81,3.32 z"
       fill="url(#paint43_linear_1204_2525)"
       id="path57"
       style="fill:url(#paint43_linear_1204_2525)" />
    <path
       d="m 35.93,173.9 9.84,-9.89 2.91,0.8 1.95,2.81 -9.44,9.48 -3.93,-1.6 z"
       fill="url(#paint44_linear_1204_2525)"
       id="path58"
       style="fill:url(#paint44_linear_1204_2525)" />
    <path
       d="m 55.68,177.1 3.03,-3.04 3.03,2.64 -3.03,3.2 z"
       fill="url(#paint45_linear_1204_2525)"
       id="path59"
       style="fill:url(#paint45_linear_1204_2525)" />
  </g>
  <defs
     id="defs153">
    <radialGradient
       id="paint0_radial_1204_2525"
       cx="0"
       cy="0"
       r="1"
       gradientTransform="matrix(25.75,0,0,25.86,186.7,117.6)"
       gradientUnits="userSpaceOnUse">
      <stop
         stop-color="#8429C3"
         offset="0"
         id="stop59" />
      <stop
         stop-color="#40E6FF"
         offset=".6719"
         id="stop60" />
      <stop
         stop-color="#40E6FF"
         stop-opacity=".25"
         offset="1"
         id="stop61" />
    </radialGradient>
    <linearGradient
       id="paint9_linear_1204_2525"
       x1="77.459999"
       x2="77.459999"
       y1="95.730003"
       y2="126.1"
       gradientUnits="userSpaceOnUse">
      <stop
         stop-color="#5F76FF"
         offset="0"
         id="stop78" />
      <stop
         stop-color="#40E6FF"
         offset="1"
         id="stop79" />
    </linearGradient>
    <linearGradient
       id="paint10_linear_1204_2525"
       x1="157.5"
       x2="157.5"
       y1="97.610001"
       y2="118.8"
       gradientUnits="userSpaceOnUse">
      <stop
         stop-color="#88B0D5"
         offset="0"
         id="stop80" />
      <stop
         stop-color="#C2E8F2"
         offset="1"
         id="stop81" />
    </linearGradient>
    <linearGradient
       id="paint11_linear_1204_2525"
       x1="118.9"
       x2="118.9"
       y1="95.330002"
       y2="148.89999"
       gradientUnits="userSpaceOnUse">
      <stop
         stop-color="#C2E8F2"
         offset="0"
         id="stop82" />
      <stop
         stop-color="#8895C6"
         offset="1"
         id="stop83" />
    </linearGradient>
    <linearGradient
       id="paint12_linear_1204_2525"
       x1="137.39999"
       x2="137.39999"
       y1="97.970001"
       y2="108"
       gradientUnits="userSpaceOnUse">
      <stop
         stop-color="#B8859E"
         offset="0"
         id="stop84" />
      <stop
         stop-color="#C2E8F2"
         offset="1"
         id="stop85" />
    </linearGradient>
    <linearGradient
       id="paint13_linear_1204_2525"
       x1="139.60001"
       x2="139.60001"
       y1="107.6"
       y2="118.1"
       gradientUnits="userSpaceOnUse">
      <stop
         stop-color="#40E6FF"
         offset="0"
         id="stop86" />
      <stop
         stop-color="#40E6FF"
         stop-opacity=".53"
         offset="1"
         id="stop87" />
    </linearGradient>
    <linearGradient
       id="paint14_linear_1204_2525"
       x1="116.2"
       x2="116.2"
       y1="96.129997"
       y2="147.39999"
       gradientUnits="userSpaceOnUse">
      <stop
         stop-color="#C2E8F2"
         offset="0"
         id="stop88" />
      <stop
         stop-color="#8895C6"
         offset="1"
         id="stop89" />
    </linearGradient>
    <linearGradient
       id="paint15_linear_1204_2525"
       x1="115.9"
       x2="115.9"
       y1="100"
       y2="132.7"
       gradientUnits="userSpaceOnUse">
      <stop
         stop-color="#C2E8F2"
         offset="0"
         id="stop90" />
      <stop
         stop-color="#8895C6"
         offset="1"
         id="stop91" />
    </linearGradient>
    <linearGradient
       id="paint16_linear_1204_2525"
       x1="120.6"
       x2="120.6"
       y1="111.1"
       y2="132.7"
       gradientUnits="userSpaceOnUse">
      <stop
         stop-color="#FEFFFE"
         offset="0"
         id="stop92" />
      <stop
         stop-color="#C2E8F2"
         offset="1"
         id="stop93" />
    </linearGradient>
    <linearGradient
       id="paint17_linear_1204_2525"
       x1="143"
       x2="143"
       y1="120.1"
       y2="141.10001"
       gradientUnits="userSpaceOnUse">
      <stop
         stop-color="#FEFFFE"
         offset="0"
         id="stop94" />
      <stop
         stop-color="#C2E8F2"
         offset="1"
         id="stop95" />
    </linearGradient>
    <linearGradient
       id="paint18_linear_1204_2525"
       x1="165.3"
       x2="165.3"
       y1="124.9"
       y2="139.2"
       gradientUnits="userSpaceOnUse">
      <stop
         stop-color="#FEFFFE"
         offset="0"
         id="stop96" />
      <stop
         stop-color="#C2E8F2"
         offset="1"
         id="stop97" />
    </linearGradient>
    <linearGradient
       id="paint19_linear_1204_2525"
       x1="159.5"
       x2="159.5"
       y1="115.9"
       y2="122"
       gradientUnits="userSpaceOnUse">
      <stop
         stop-color="#FEFFFE"
         offset="0"
         id="stop98" />
      <stop
         stop-color="#C2E8F2"
         offset="1"
         id="stop99" />
    </linearGradient>
    <linearGradient
       id="paint20_linear_1204_2525"
       x1="129.7"
       x2="129.7"
       y1="145.2"
       y2="166.60001"
       gradientUnits="userSpaceOnUse">
      <stop
         stop-color="#8895C6"
         offset="0"
         id="stop100" />
      <stop
         stop-color="#B8859E"
         offset="1"
         id="stop101" />
    </linearGradient>
    <linearGradient
       id="paint21_linear_1204_2525"
       x1="98"
       x2="98"
       y1="132.7"
       y2="168.3"
       gradientUnits="userSpaceOnUse">
      <stop
         stop-color="#C2E8F2"
         offset="0"
         id="stop102" />
      <stop
         stop-color="#8895C6"
         offset="1"
         id="stop103" />
    </linearGradient>
    <linearGradient
       id="paint22_linear_1204_2525"
       x1="94.730003"
       x2="94.730003"
       y1="150.7"
       y2="164.3"
       gradientUnits="userSpaceOnUse">
      <stop
         stop-color="#F0996F"
         offset="0"
         id="stop104" />
      <stop
         stop-color="#9B5871"
         offset="1"
         id="stop105" />
    </linearGradient>
    <linearGradient
       id="paint23_linear_1204_2525"
       x1="98.730003"
       x2="98.730003"
       y1="133.89999"
       y2="157.39999"
       gradientUnits="userSpaceOnUse">
      <stop
         stop-color="#FEFFFE"
         offset="0"
         id="stop106" />
      <stop
         stop-color="#C2E8F2"
         offset="1"
         id="stop107" />
    </linearGradient>
    <linearGradient
       id="paint24_linear_1204_2525"
       x1="154.5"
       x2="154.5"
       y1="124.5"
       y2="138.60001"
       gradientUnits="userSpaceOnUse">
      <stop
         stop-color="#F0996F"
         offset="0"
         id="stop108" />
      <stop
         stop-color="#9B5871"
         offset="1"
         id="stop109" />
    </linearGradient>
    <linearGradient
       id="paint25_linear_1204_2525"
       x1="128"
       x2="128"
       y1="9.8570004"
       y2="95.730003"
       gradientUnits="userSpaceOnUse">
      <stop
         stop-color="#E1FEFF"
         offset="0"
         id="stop110" />
      <stop
         stop-color="#8895C6"
         offset="1"
         id="stop111" />
    </linearGradient>
    <linearGradient
       id="paint26_linear_1204_2525"
       x1="133.5"
       x2="133.5"
       y1="12.02"
       y2="92.260002"
       gradientUnits="userSpaceOnUse">
      <stop
         stop-color="#E1FEFF"
         offset="0"
         id="stop112" />
      <stop
         stop-color="#C2E8F2"
         offset=".47"
         id="stop113" />
      <stop
         stop-color="#8895C6"
         offset="1"
         id="stop114" />
    </linearGradient>
    <radialGradient
       id="paint27_radial_1204_2525"
       cx="0"
       cy="0"
       r="1"
       gradientTransform="matrix(31.64,0,0,28.18,142.8,54.4)"
       gradientUnits="userSpaceOnUse">
      <stop
         stop-color="#009BA4"
         offset="0"
         id="stop115" />
      <stop
         stop-color="#002D54"
         offset=".7708"
         id="stop116" />
      <stop
         stop-color="#001236"
         offset="1"
         id="stop117" />
    </radialGradient>
    <linearGradient
       id="paint28_linear_1204_2525"
       x1="128"
       x2="128"
       y1="48.939999"
       y2="67.650002"
       gradientUnits="userSpaceOnUse">
      <stop
         stop-color="#0ff"
         offset="0"
         id="stop118" />
      <stop
         stop-color="#99FEFF"
         offset="1"
         id="stop119" />
    </linearGradient>
    <linearGradient
       id="paint29_linear_1204_2525"
       x1="163"
       x2="163"
       y1="46.700001"
       y2="63.529999"
       gradientUnits="userSpaceOnUse">
      <stop
         stop-color="#0ff"
         offset="0"
         id="stop120" />
      <stop
         stop-color="#99FEFF"
         offset="1"
         id="stop121" />
    </linearGradient>
    <linearGradient
       id="paint30_linear_1204_2525"
       x1="161.39999"
       x2="161.39999"
       y1="37.669998"
       y2="43.48"
       gradientUnits="userSpaceOnUse">
      <stop
         stop-color="#FEFFFF"
         offset="0"
         id="stop122" />
      <stop
         stop-color="#99FEFF"
         offset="1"
         id="stop123" />
    </linearGradient>
    <linearGradient
       id="paint31_linear_1204_2525"
       x1="146.5"
       x2="146.5"
       y1="67.910004"
       y2="74.620003"
       gradientUnits="userSpaceOnUse">
      <stop
         stop-color="#40E6FF"
         offset="0"
         id="stop124" />
      <stop
         stop-color="#40E6FF"
         stop-opacity=".75"
         offset="1"
         id="stop125" />
    </linearGradient>
    <linearGradient
       id="paint32_linear_1204_2525"
       x1="72.480003"
       x2="72.480003"
       y1="18.9"
       y2="29.08"
       gradientUnits="userSpaceOnUse">
      <stop
         stop-color="#F0996F"
         offset="0"
         id="stop126" />
      <stop
         stop-color="#9B5871"
         offset="1"
         id="stop127" />
    </linearGradient>
    <linearGradient
       id="paint33_linear_1204_2525"
       x1="72.110001"
       x2="72.110001"
       y1="21.02"
       y2="26.879999"
       gradientUnits="userSpaceOnUse">
      <stop
         stop-color="#F0996F"
         offset="0"
         id="stop128" />
      <stop
         stop-color="#9B5871"
         offset="1"
         id="stop129" />
    </linearGradient>
    <linearGradient
       id="paint34_linear_1204_2525"
       x1="91.849998"
       x2="91.849998"
       y1="44.709999"
       y2="78.410004"
       gradientUnits="userSpaceOnUse">
      <stop
         stop-color="#F0996F"
         offset="0"
         id="stop130" />
      <stop
         stop-color="#9B5871"
         offset="1"
         id="stop131" />
    </linearGradient>
    <linearGradient
       id="paint35_linear_1204_2525"
       x1="84.650002"
       x2="84.650002"
       y1="49.900002"
       y2="75.339996"
       gradientUnits="userSpaceOnUse">
      <stop
         stop-color="#F0996F"
         offset="0"
         id="stop132" />
      <stop
         stop-color="#9B5871"
         offset="1"
         id="stop133" />
    </linearGradient>
    <linearGradient
       id="paint36_linear_1204_2525"
       x1="50.060001"
       x2="50.060001"
       y1="121.4"
       y2="127.1"
       gradientUnits="userSpaceOnUse">
      <stop
         stop-color="#40E6FF"
         offset="0"
         id="stop134" />
      <stop
         stop-color="#40A1FF"
         offset="1"
         id="stop135" />
    </linearGradient>
    <linearGradient
       id="paint37_linear_1204_2525"
       x1="44.650002"
       x2="44.650002"
       y1="141.39999"
       y2="149.5"
       gradientUnits="userSpaceOnUse">
      <stop
         stop-color="#5554CB"
         offset="0"
         id="stop136" />
      <stop
         stop-color="#5577CB"
         offset="1"
         id="stop137" />
    </linearGradient>
    <linearGradient
       id="paint38_linear_1204_2525"
       x1="58.290001"
       x2="58.290001"
       y1="134.7"
       y2="142.2"
       gradientUnits="userSpaceOnUse">
      <stop
         stop-color="#40E6FF"
         offset="0"
         id="stop138" />
      <stop
         stop-color="#40A1FF"
         offset="1"
         id="stop139" />
    </linearGradient>
    <linearGradient
       id="paint39_linear_1204_2525"
       x1="79.730003"
       x2="79.730003"
       y1="132.3"
       y2="141.10001"
       gradientUnits="userSpaceOnUse">
      <stop
         stop-color="#40E6FF"
         offset="0"
         id="stop140" />
      <stop
         stop-color="#40E6FF"
         offset="1"
         id="stop141" />
    </linearGradient>
    <linearGradient
       id="paint40_linear_1204_2525"
       x1="63.02"
       x2="63.02"
       y1="142.3"
       y2="163.3"
       gradientUnits="userSpaceOnUse">
      <stop
         stop-color="#40A1FF"
         offset="0"
         id="stop142" />
      <stop
         stop-color="#4070C0"
         offset="1"
         id="stop143" />
    </linearGradient>
    <linearGradient
       id="paint41_linear_1204_2525"
       x1="69.099998"
       x2="69.099998"
       y1="164.5"
       y2="170"
       gradientUnits="userSpaceOnUse">
      <stop
         stop-color="#40A1FF"
         offset="0"
         id="stop144" />
      <stop
         stop-color="#4070C0"
         offset="1"
         id="stop145" />
    </linearGradient>
    <linearGradient
       id="paint42_linear_1204_2525"
       x1="34.77"
       x2="34.77"
       y1="156.60001"
       y2="162.3"
       gradientUnits="userSpaceOnUse">
      <stop
         stop-color="#40E6FF"
         offset="0"
         id="stop146" />
      <stop
         stop-color="#40A1FF"
         offset="1"
         id="stop147" />
    </linearGradient>
    <linearGradient
       id="paint43_linear_1204_2525"
       x1="29.1"
       x2="29.1"
       y1="179"
       y2="185.7"
       gradientUnits="userSpaceOnUse">
      <stop
         stop-color="#5554CB"
         offset="0"
         id="stop148" />
      <stop
         stop-color="#5577CB"
         offset="1"
         id="stop149" />
    </linearGradient>
    <linearGradient
       id="paint44_linear_1204_2525"
       x1="43.27"
       x2="43.27"
       y1="164"
       y2="177.10001"
       gradientUnits="userSpaceOnUse">
      <stop
         stop-color="#40E6FF"
         offset="0"
         id="stop150" />
      <stop
         stop-color="#FEFFFE"
         stop-opacity=".53"
         offset="1"
         id="stop151" />
    </linearGradient>
    <linearGradient
       id="paint45_linear_1204_2525"
       x1="58.709999"
       x2="58.709999"
       y1="174.10001"
       y2="179.89999"
       gradientUnits="userSpaceOnUse">
      <stop
         stop-color="#40A1FF"
         offset="0"
         id="stop152" />
      <stop
         stop-color="#4070C0"
         offset="1"
         id="stop153" />
    </linearGradient>
  </defs>
</svg>
