<?xml version="1.0" encoding="UTF-8" standalone="no"?>
<svg
   width="234.77"
   height="44.679993"
   fill="none"
   viewBox="0 0 234.77 44.679993"
   version="1.1"
   id="svg153"
   xmlns="http://www.w3.org/2000/svg"
   xmlns:svg="http://www.w3.org/2000/svg">
  <!-- SVG created with Arrow, by QuiverAI (https://quiver.ai) -->
  <path
     d="m 0.03999973,34.779997 v -5.4 H 15.57 c 2.05,0 2.85,-0.76 2.85,-2.71 v -0.44 c 0,-1.65 -0.8,-2.37 -2.85,-2.37 H 6.6799998 c -5.03,0 -6.68000007200495,-1.99 -6.68000007200495,-6.87 v -1.16 C -2.7200495e-7,10.739997 1.8899998,8.7799972 6.6799998,8.7799972 H 22.5 V 13.789997 H 7.9999998 c -1.8,0 -2.72,0.68 -2.72,2.28 v 0.4 c 0,1.56 0.88,2.25 2.72,2.25 H 16.61 c 5.45,0 7.1,1.95 7.1,6.58 v 1.69 c 0,5.16 -1.85,7.21 -7.1,7.21 H 0.03999973 Z"
     fill="url(#paint1_linear_1204_2525)"
     id="path7"
     style="fill:url(#paint1_linear_1204_2525)" />
  <path
     d="m 27.92,44.679997 v -25.59 c 0,-7.31 2.73,-10.2999998 9.84,-10.2999998 h 6.87 c 7.11,0 9.42,2.9899998 9.42,10.2999998 v 4.38 c 0,7.32 -2.31,10.31 -9.42,10.31 H 33.86 v 10.9 z m 20.39,-25.19 c 0,-4.09 -1.04,-5.69 -5.29,-5.69 H 39 c -4.25,0 -5.3,1.6 -5.3,5.69 v 7.51 c 0,1.59 0.61,2.35 2.17,2.35 h 7.15 c 4.25,0 5.29,-1.6 5.29,-5.72 z"
     fill="url(#paint2_linear_1204_2525)"
     id="path8"
     style="fill:url(#paint2_linear_1204_2525)" />
  <path
     d="m 64.35,34.779997 c -5.62,0 -6.67,-2.71 -6.67,-7 v -0.71 c 0,-4.29 1.49,-6.4 6.75,-6.4 h 12.93 v -1.63 c 0,-3.37 -1.24,-4.61 -5.04,-4.61 H 58.49 V 8.7799972 h 14.83 c 7.51,0 9.32,3.2699998 9.32,10.2999998 v 15.7 z m 13.01,-10.08 H 66.27 c -1.8,0 -2.84,0.57 -2.84,2.45 v 0.32 c 0,1.71 0.84,2.31 2.64,2.31 H 76.2 c 0.72,0 1.12,-0.4 1.12,-1.28 v -3.8 z"
     fill="url(#paint3_linear_1204_2525)"
     id="path9"
     style="fill:url(#paint3_linear_1204_2525)" />
  <path
     d="m 111.19,34.779997 c -1.89,0 -2.73,-1.06 -3.33,-3.35 l -3.47,-16.28 c -0.12,-0.56 -0.44,-0.84 -0.84,-0.84 -0.4,0 -0.72,0.28 -0.84,0.84 l -4.42,16.28 c -0.69,2.29 -1.53,3.35 -3.42,3.35 h -1.16 c -2.21,0 -3.17,-1.18 -3.85,-3.76 L 84.71,8.6999972 h 6.47 l 4.26,19.1699998 c 0.12,0.47 0.32,0.71 0.68,0.71 0.36,0 0.6,-0.24 0.72,-0.71 l 4.55,-16.78 c 0.6,-1.7499998 1.4,-2.5099998 2.92,-2.5099998 h 2.39 c 1.52,0 2.4,0.76 2.96,2.5099998 l 4.96,16.78 c 0.12,0.47 0.4,0.71 0.72,0.71 0.32,0 0.56,-0.24 0.72,-0.71 l 4.26,-19.1699998 h 5.52 L 119,31.019997 c -0.84,2.58 -1.88,3.76 -3.9,3.76 z"
     fill="url(#paint4_linear_1204_2525)"
     id="path10"
     style="fill:url(#paint4_linear_1204_2525)" />
  <path
     d="m 148.99,34.779997 v -14.9 c 0,-4.33 -1.04,-6.09 -5.3,-6.09 h -4.43 c -4.26,0 -5.3,1.76 -5.3,6.09 v 14.9 h -5.95 v -15.7 c 0,-7.31 2.39,-10.2999998 9.91,-10.2999998 h 6.17 c 7.51,0 10.67,2.9899998 10.67,10.2999998 v 15.7 z"
     fill="url(#paint5_linear_1204_2525)"
     id="path11"
     style="fill:url(#paint5_linear_1204_2525)" />
  <path
     d="m 169.29,34.779997 c -7.5,0 -9.89,-2.99 -9.89,-10.32 V -2.7992535e-6 h 5.74 V 9.0199972 h 10.76 c 7.12,0 8.93,4.3299998 8.93,10.2599998 v 4.26 c 0,6.91 -2.73,11.24 -9.85,11.24 z m 10.2,-14.7 c 0,-3.69 -1.04,-6.05 -5.29,-6.05 h -7.93 c -0.8,0 -1.17,0.4 -1.17,1.44 v 8.47 c 0,3.84 1.13,5.84 5.39,5.84 h 3.61 c 4.26,0 5.31,-1.6 5.31,-5.72 v -3.98 z"
     fill="url(#paint6_linear_1204_2525)"
     id="path12"
     style="fill:url(#paint6_linear_1204_2525)" />
  <path
     d="m 198.09,34.779997 c -7.11,0 -8.6,-3.84 -8.6,-11.16 v -1.67 c 0,-7.32 1.49,-13.1699998 8.6,-13.1699998 h 7.71 c 7.12,0 9.29,3.3099998 9.29,10.6199998 v 4.14 c 0,7.32 -2.17,11.24 -9.29,11.24 z m 11.22,-14.9 c 0,-4.33 -1.24,-6.09 -5.03,-6.09 h -4.43 c -4.25,0 -5.3,1.76 -5.3,6.09 v 3.82 c 0,4.32 1.05,5.64 5.3,5.64 h 4.43 c 4.25,0 5.03,-1.6 5.03,-5.72 z"
     fill="url(#paint7_linear_1204_2525)"
     id="path13"
     style="fill:url(#paint7_linear_1204_2525)" />
  <path
     d="m 230.39,34.779997 c -6.29,0 -7.73,-3.15 -7.73,-9.31 v -11.68 h -4.07 V 8.5799972 h 3.39 c 0.48,0 0.72,-0.28 0.72,-0.92 v -6.09 h 5.45 v 5.77 c 0,0.84 0.32,1.24 1.24,1.24 h 5.38 v 5.0099998 h -5.78 c -0.64,0 -0.96,0.36 -0.96,1.12 v 10.16 c 0,3.55 0.84,4.91 4.2,4.91 h 2.34 v 5 z"
     fill="url(#paint8_linear_1204_2525)"
     id="path14"
     style="fill:url(#paint8_linear_1204_2525)" />
  <defs
     id="defs153">
    <linearGradient
       id="paint1_linear_1204_2525"
       x1="19.469999"
       x2="19.469999"
       y1="211.8"
       y2="237.8"
       gradientUnits="userSpaceOnUse"
       gradientTransform="translate(-7.6100002,-203.02)">
      <stop
         stop-color="#001A3B"
         offset="0"
         id="stop62" />
      <stop
         stop-color="#113B66"
         offset="1"
         id="stop63" />
    </linearGradient>
    <linearGradient
       id="paint2_linear_1204_2525"
       x1="48.59"
       x2="48.59"
       y1="211.8"
       y2="247.7"
       gradientUnits="userSpaceOnUse"
       gradientTransform="translate(-7.6100002,-203.02)">
      <stop
         stop-color="#001A3B"
         offset="0"
         id="stop64" />
      <stop
         stop-color="#113B66"
         offset="1"
         id="stop65" />
    </linearGradient>
    <linearGradient
       id="paint3_linear_1204_2525"
       x1="77.739998"
       x2="77.739998"
       y1="211.8"
       y2="237.8"
       gradientUnits="userSpaceOnUse"
       gradientTransform="translate(-7.6100002,-203.02)">
      <stop
         stop-color="#001A3B"
         offset="0"
         id="stop66" />
      <stop
         stop-color="#113B66"
         offset="1"
         id="stop67" />
    </linearGradient>
    <linearGradient
       id="paint4_linear_1204_2525"
       x1="112.9"
       x2="112.9"
       y1="211.60001"
       y2="237.8"
       gradientUnits="userSpaceOnUse"
       gradientTransform="translate(-7.6100002,-203.02)">
      <stop
         stop-color="#001A3B"
         offset="0"
         id="stop68" />
      <stop
         stop-color="#113B66"
         offset="1"
         id="stop69" />
    </linearGradient>
    <linearGradient
       id="paint5_linear_1204_2525"
       x1="149"
       x2="149"
       y1="211.8"
       y2="237.8"
       gradientUnits="userSpaceOnUse"
       gradientTransform="translate(-7.6100002,-203.02)">
      <stop
         stop-color="#001A3B"
         offset="0"
         id="stop70" />
      <stop
         stop-color="#113B66"
         offset="1"
         id="stop71" />
    </linearGradient>
    <linearGradient
       id="paint6_linear_1204_2525"
       x1="179.7"
       x2="179.7"
       y1="203"
       y2="237.8"
       gradientUnits="userSpaceOnUse"
       gradientTransform="translate(-7.6100002,-203.02)">
      <stop
         stop-color="#001A3B"
         offset="0"
         id="stop72" />
      <stop
         stop-color="#114978"
         offset="1"
         id="stop73" />
    </linearGradient>
    <linearGradient
       id="paint7_linear_1204_2525"
       x1="209.89999"
       x2="209.89999"
       y1="211.8"
       y2="237.8"
       gradientUnits="userSpaceOnUse"
       gradientTransform="translate(-7.6100002,-203.02)">
      <stop
         stop-color="#001A3B"
         offset="0"
         id="stop74" />
      <stop
         stop-color="#114978"
         offset="1"
         id="stop75" />
    </linearGradient>
    <linearGradient
       id="paint8_linear_1204_2525"
       x1="234.3"
       x2="234.3"
       y1="204.60001"
       y2="237.8"
       gradientUnits="userSpaceOnUse"
       gradientTransform="translate(-7.6100002,-203.02)">
      <stop
         stop-color="#001A3B"
         offset="0"
         id="stop76" />
      <stop
         stop-color="#114978"
         offset="1"
         id="stop77" />
    </linearGradient>
  </defs>
</svg>
